<mxfile host="Electron" modified="2024-02-16T06:28:56.766Z" agent="Mozilla/5.0 (Windows NT 10.0; Win64; x64) AppleWebKit/537.36 (KHTML, like Gecko) draw.io/21.2.8 Chrome/112.0.5615.165 Electron/24.2.0 Safari/537.36" etag="gmUCcXSRfZFPIuB1js9a" version="21.2.8" type="device">
  <diagram name="Page-1" id="2XWkQP5S-hDbL94sL5Vg">
    <mxGraphModel dx="2058" dy="1180" grid="1" gridSize="10" guides="1" tooltips="1" connect="1" arrows="1" fold="1" page="1" pageScale="1" pageWidth="3300" pageHeight="4681" background="#999999" math="0" shadow="0">
      <root>
        <mxCell id="0" />
        <mxCell id="1" parent="0" />
        <mxCell id="APLwThIm-aDqV8bCMrbt-1" value="TableView" style="rounded=0;whiteSpace=wrap;html=1;fontSize=25;fillColor=#dae8fc;strokeColor=#6c8ebf;" parent="1" vertex="1">
          <mxGeometry x="1390" y="140" width="460" height="60" as="geometry" />
        </mxCell>
        <mxCell id="JcM1GYz6ZC9jCRO50ryS-1" value="" style="shape=image;verticalLabelPosition=bottom;labelBackgroundColor=default;verticalAlign=top;aspect=fixed;imageAspect=0;image=data:image/png,iVBORw0KGgoAAAANSUhEUgAAArIAAAF/CAYAAAC15yp3AAAAAXNSR0IArs4c6QAAAARnQU1BAACxjwv8YQUAAAAJcEhZcwAADsMAAA7DAcdvqGQAAF+DSURBVHhe7d0HYBPVAwbwL+luKatlb8qSIUtkj7KXDEVURMYfpYgDmQKiIiiiogiU4QJkqChDQUDZQwEHsjdlQxnde+d/73Jp05KmSdM2vfT7wfVyI7nLvdfcl5eXq6ZBw0Y6CDod9Df0dNJ0JpmWK7ekUZa1HIgNz8zGg+K4xzQ/2emoFdHCYh2lwk6jjFXJbjuv6qNmFzYfMZsewDHLS35WGT9k+snMz1c/qYE+yGYJqQ9nWMMMZSyNsqxihuVrPsQ+dy0EeMzIEiotMVY0dcl87iCL8KBZy65HzKaNq7Osbd7rfH3a+geXf2b8kGlMhFlN/QYNjU4rWUJs1lZY/X9F1unCxsY9s+HuhfeY5MR+x8xW6j3m9sSjRpS9zCdMyplNR8zmw130yitLprNS4T5ehtbW9J8PTetvC0ZBNnOIzdoKmzFpHG6FzFMPyWGxOTbc1XbGB8NKdt1vu1JrYdtP0a0rRJQfMk7vdmDTxu2653Zjv0Nm2/HO301nrCDfUkKrcbgVDMuUIGsUYjMFVXmRMp056D48nR2LVjLNPnfNAzZuXbXPuyhS8RFX6a6zjhesjNNGEWPXJ15kj7pd2HS0bS4q+5S1fXc75zvLaxi3uupnKPPTf8g/NY/Ub5BxXsgSYo3DrbOLC7y8POHq4gpXN1c4OTnl+xnFeG/IQqo9ZPbbcdYyInIU+tO7vdh367mm0t22JyVS5h/p4VNTU5GYmIikpGTExcUhJTlZmq/frnHrbEaQNRNivb29UaJkCYRGxCA+IQkJSSlITk5RVshO1idpeMCs86noEnUhpxjJ+kIFjXWOqHDK6XxRFKj5GFi37y7OTnB3c4GHmyt8S3sjIiIS0VFR0ku0/jU6vZVWDrLZhFjRT9bX11eao0Xwgwgk5RheDUydCMSD8gRBxkR9yKlis85QQWOdIyr8rAtFjketzz93++3q4owKZUpCyra4f/+BMld6tZZerrWmQ6wY61Dc21u65YTrd0KyCbHWvODz5ECmiHqRXd1gnSFrsL4QFR2Gc0dR/b1X6/PP3f6KDCqyaEoq5F4C+gsS6DOrVr+KRATa9BArmnSd5e4EwQ/C5cUPM+xM1p1S20GlvCHKPetgTtblWe+bdTmRJWytN6x3RESFlegdULJECTmjGjKrVh6L8CqP5Twr8yrmJfeJtaw7AcNH0ZZduZuaz3pC+UW8eInBUMcsGYiISC1EJg0Jj4anl6c8LTKrvkVWDq/67gQyaSyuTiC+2GUaTwBkwLpAamYcalmXidRHyS1FknjuRe/5xycmyRnV0PKa0UfWcCyUaXGJLXF1AqLsWXLiNw4IDApERES5JxKaYSiaEhKT4ebmpj8CUmbV1K33iNwpVn9I5JvyuHq16jhz+bY8N/MBywgjxb095csjWCs5JRVR0XHKFKkDQyipBesqUdFR1AKduedr/NpXmI+L7fvWoFZlXLt+TbqlEUG2nlGPAv0NMa5evRrOXr4jT2dn/idz4FfLT5kyTaNc7+v23RAlJAOxUaGYMHk6tFrrQzDZA4MBqQnrK1HRIwKGqd9920NT4ZPdcyo6QbZ+rUq4du264fJbylyjEGupkiW80aBebbND/bq15KFbx1bo3kk/lPH1sWo7lF8sOeEzFJA9iHqXdbCEpesRkWNxjN/92e9Ow41Lx3H7yimTg1gm1slZwR6PQ3t+RZuWLZSph4llf+7eokzlFX0vAk3duvX0kVL6KcaGgGlJi+yqbxajcmU//HzwEjRanX5wEkMaejeuhfLlSiAmJlZe18vLCxv+vCrfruEdh6EjRsPJyVmeLkh/7NmK8PAIPPHU88ocvfdnTsfIYUNQqWZDZc7DxH1rSMclqyefGY6//jmqTGW4feV0to9nbpmw4stF8PUp/dB+btmwFiGhYfLtFs2bomHzdvLt3DFU9OzeVDAUkD1YU++y1l3WWSIylt35rXASQbVb70EIvndPmZNZ6VKlcGDXZlSt3ViZYyzr61/BPXcRVAM/n4tX35iKQ3/9o8zVe3iZ7fulb5HVdy3IuI5sLoi/tavROOFqZAyuRUfjelwUbiZG4lZyBJKT06RQLA3KPwMn11TlVsESQVWER1PE/E4d2ipT2WvXuY8cPles+g7/HTsh3xaDqRBrq2VfrUSzpg9XVDFv5OjX5CHnEGvpSV2sZ2ogKuyM6yrrLBGpm5OTkxxio6KiTQ7Xrt+Q1zFNZC3joeCIgCqCqgisxi2z5gJuXrEpyKampcnjMj5u0LimIDIlCg8SQnEvXv/nwzRZjqN7qQR4+trnS14zZs6RQ+ely1eUORnE/IlvvqNMFQ4iHF+9dh2jRmS0yIowLuZZhid1KkpY34mI7ClrmC2IECtk+YMISvIU3QuyhFBTDKucu3cLVyOCEZESjnhEI0kTI8/XKecW0XIreJWMgWcx/bKcnD76h9xSKgbxkb6BmG9oXbVmWX4ybE8M4qN/Y8b7I7oLmCLCqvFjGIjQPeCJ3soU0LhRA+w78Kd8Wzyu8bbEbcP9DfNPHz2Ili2ay7fFNsTxMdiy4Tv5MYiIiEhtCuebd+Mwm68hVgRQOYTqbO1aoBcvBVcXj2S4uCfD2S0JLtIgkzZiCLFCvTJVUKtkTWXKPPGxueGje8G4ZVJ0AzAsE3+qzDiQmVuWXwzbE4PoQ2sIj4IIn4Zl3bv6Z3oeglh3/Gsvp6/zzqwP04Oo6F5g3CdXdCsQLctZiYAs+s0aHkMcdbGdf44ewxN9esrTA57oI6+r3zeN9LhVTT4WERGR+ulw+8pJaTD9pSnjQb0KZ5gtaDYFWQM5wEqDi5sYjIKsdIyNG3ZrlfKTB0sYt2Rm/YKVcTeAn7dsk8Oigbll1jJsXwxZA6gxESQN65UqVVKZq2f8Za0du/aiXZtWypTeE316yPcx3H/WO9PSn6/oXhARGSlvWwyiX25m+kpcu1ZNOSQbHqNZ00el7bTEH4f+koJ9G3mdUqVKSMdjO8a8NEJ+rKvXbsjziQqGqKumhqxMzSMisl6lmo2k4dEchkbK2pQXjLsTGHczyE95EmT1IVYfYF3F2FUfZPVXQDBEWR2SkpMRH5+gTGdPhFjjltWc+oUavsVvirllOTFsXwzfrMzcZcDAcHUBw3riigjm3L4TrNzKYPzFMTEYf4lLdCUQ4Vd0MThx6owyV8h8whctufr7i1/cRhg5+nV5n0WrtAiu4eGR2LL1Nzn0ipCb+bGI8pO5cGocaBliiSivGL+2mKP2153Cs/9Z+8Rm7TObX2wLstLxS0yMR0tfPzxWqjaaFa+DJl6P4FGPBvJ8/Sr6gywybVpaWvoXxHJiCITio/CsLbKiVdFAXDLrj0NHlCnzy/KLISyLwJi1RdbQtUE8D9FqumXr7/K0gZgWXQaMuyMYE8vFZbYydyswrrgauS+teK6miJbXkcOek1un//rnP3meCLMi1BLlP0tfZAvPizERFTWF5/UnNTVVvsRWdsqXLyuvk5nYf/s+h+y+2PVwmDX+nD5v2BRkRSZ9pG4VBPh3RUDH7nipfS+82L4fRrXtj3p1K8PT0wtly5ZBaZ/ScHF1kYOsVpvzwRaBTQQ38TH5N8sWPNQiK1pADR+ji4/rjVtLzS3LD6Ifq+FjfREms7bIiq4NYtnGdd/Kl+3KeqkuMS3mi+WG/Tb+Upihe0FGt4KHj59ofRX099f3+WnZopk8T7S8ijcChuMgQq9gCLVEuWN44TQMpmQ3n4iosCkcr1ffrlknXyfWuA+v8fD3wR3yOoWJ+Auun8x556EQa6APs29i3ofvKnPylqZO3XpSPNbJLabpY+lH9erVcTbI/B9EeOO1MWja5FFl6mFarVYexLsH47/kdfLEaXwyfyG0ufiDCOKb96PGjHsoEArmlqkTgwAVRqyXROSI8r61sODZ5zmIMJv9X2zN+32q76f8QQTpdGRTkJX/4EGa+KMH1hGnQY0UcDUa6xuEi06QZViggmSqvpn6zWa9JCJHZW2aKYwK43PI+30yDrL6JClvIyPEWrpJEURFq6r4U7PWDOI+uQmxRQfDAhWk7OqbmJ91ICJyNHL40d8k1VCiq9IiK4fXzEG2hgUtspQfGBYor2StS6ZeqFnfiKgoM/W6qHaF7Tnl/f6IFtmr167JZzA2ixYYcbgtGYjyC+sYEZFjMg6Lhe21Pn/3hUG2QDA8kD2IFzZHbG0gIsorPD+rHYNsvuMvCdlb1jAr6qRhICIq6hz19bAwPaf82xcG2TyVtaAc8ReDHI+h5Zatt6QW4rWVr6+U1xyxThWm35X82Q8G2TxjKCBDpSksFYccU17WMdZVUivWXcpraq1TOe234/6uMMjmCb6YUkEyrm+W1D1L12E9JrXI+ilCTvU3v+t3fj8+kTVMfcKWddpxSEFWf7ktww/9UxU/HfdJ5y2+eFFesOVEaO5+rJ9UlGT9Pcpu2nieKZasY4rx45saSB0cpbwMWc7x8pycVpXLxWrq1K2r/6tixteSlcbiOrI7t+8QE0REREREhULXXt1x7ar4y14adi0gIiIiInVikCUiIiIiVWKQJSIiIiJVYpAlIiIiIlVikCUiIiIiVWKQJSIiIiJV0soX4ZIvvCWPZOISXMpNIiIiIqJCxZBT2SJLRERERKrEIEtEREREqsQgS0RERESqxCBLRERERKrkcEFWl5KMVH5TrQDokJaWxi8FkhV00LHOEBFRHnKcIKuLw9XtszHoiWnYE6XMo3yQiGtb38OzXdugZevH8Vj7AXhzw2UkKEuJHpJ2B7s+Go7u7VujZasWaNkrAIv/DmOgJQvF4Mgng9DphaU4l6LMIjLh9vqX0blDB3Tw7ygP7To+jfknEpWl5KgcIMjqcHvHbAzr5Y8hi/9EcFSaMp/yRcJJbNgcjwGfbsK+A3ux4a2GODbrdSw8zihL2YlDnM9AzN+wE/v3/4Zl/WPxzetv49cQZTGRGalXf8LCdadwNypZmUNkShriI8Pg8vjrWLA4EIELF2FJ4NsYUNVFWU6OSitaRcR1Y8UPuYVEPyH/VwcdEmJd0PSVFdj0Xkd4KXMpn7jUw0uffYhnG5eHl5s3qncfiUF17uHYqQfqqTJUsLS10O/FAWhQ1hseHmXQbOBANE27hqAHbF6jHKTdwoa5P8K1fUuUTGMjBZmTgpioBLiWq4H69Rvh0UaPykONUvwqkEPSB1bpv84RWmS18Bs4FeOfqA8fF1bYfOfkjeJeGmVCkhKPmARnlCrtBaO5RNmKDDqNWyUao2lFZ2UOkSmpuLHxA6xIexZjO5VU5hFlJxkxkUlw83LnuaiIYfIjG6Tg+i+L8FN0RzzVtrQyj+hhCWd+wPvTJ2HsyCfx/MJoPD//LXQsoSwkMiHx/NeYvCQRQ2cMgZ8rP++hnCQiOjISZ78YguZNmqBFt+cxc3MQv79RBDDIUu7oonFyeYAUSuIxYtG76MIGEzJD41EGNerWQb1HaqF09FH8+M0WXOQZhrIT8SfmTlqH8pM+xJBqLnDS8lRFOSkB//e24fAff+Dgrp+xcGgp7J8+Eu/ui1CWk6PiqwNZL+Ey1k0cjNf31MOcDcsR0Ig9k8k8t5pd8Pzw0Xh9ysdY9dOnaHfpU3yw+Y6ylMhIchDWTHkHJ5qOQGccxbZtW3Hgciy0mjCc3r0bp0PYOkumOMG9eEmU8PZGSd/qaD18Nqb2SMNfe08jVlmDHBODLFlHdw9b334Nazxex9qVk9GhLPs5kpU8q+CRqs54cDcM/B46PSTpHu4klIDmwmasWrkcy1euwMrtZxF97zDWfr0FZ5hKyCJOcHNzhgbKF9nJYTHIklVSL/2ELw7VwP9e7YTSyfGIj9cPCUmpfLEgkxLO78S2MxFIlafSEHXyR3z3twcee6w6eGEceohXG0xZtREbflyfPnz9ymPwKtcXH37/OZ6pxq/ykAnxV3D0+F0kyici6XXm9Hf4akcKmrVvgGLyCuSopCCbOX7IUypNJDrpvZdGwxe5/BR/7zZCQ3Ziin9jPNo0Y2j+3Je4pE8qRJloU87hq2Ft0KRVO7Rt3QytRmyC77hATG3D0wtZRqPVwomv7WSO5gF+m94LLVu1Ruu2rdBx5Dq4BwRiZld+EdlhSVlVxFVN7Tp1dMbXkZUnpKFGjRrY9dsOsap6pCUjIRlwdXNhU3N+SU1CfNLDiVXj5Ao3Vyde9oRM0iXHIjwkFFGpnihT3gdezqwpZAXpdSch1YmvMWReShzCQkIQleQOnwpl4O3C2uKouvbsjqtXr0rhQ+NgeU/rAneG2PwlBVYPD4+HBneeYMgMjYsXSleoiuqVfRliyXrS6w5fYyhHzp4oXV56nalaliG2CGHmIyIiIiJVYpAlIiIiIlVikCUiIiIiVWKQJSIiIiJVYpAlIiIiIlXSypfeguEvX8gX4JJvEREREREVRobcyhZZIiIiIlIlBlkiIiIiUiUGWSIiIiJSJQZZIiIiIlIlTa3adXTyl73kXrNiLE+iRo0a2PXbDnklynDh4gVcvHgRcXFxiE+IV+ZSUebh7gFPT0/UrVsXdWrXUeZmYJ2hrFhnyFqsM2StnOqMmnXt2R1Xrl6FRsMga5WTp04iIiICDeo3gI+PjzKXCAgNDZXrh6+vLxo1bKTMZZ2h7LHOkLVYZ8ha2dUZtTMOsuxaYCHxble8UHRo34EvFPQQUSf8O/kjLCwMly5fkuexzpA5rDNkLdYZspapOuNo9EFWbo2VRmIsN8jq/1EG8ZGNeLdLZI6oIxcuXJBvs86QJVhnyFqsM2Qt4zrjCPQZVQ6sbJG1lOh3xHe7lBPx8U1sbKx8m3WGLME6Q9ZinSFrGdcZR8MgayF2nidLGeoK6wxZinWGrMU6Q9Zy1LrCIEtEREREqsQgS0RERESqxCBLRERERKrEIEtEREREqsQgS0RERESqJAdZ+Yqx+j/tpdyWbxIRERERFTrKH6JliywRERERqRODLBERERGpEoMsEREREakSgywRERERqRKDLBERERGpEoMsEREREakSgywRERERqZIUZI2uHyv/1Olv62cUKv8d+w+BSwLx5rSpuRrmL5gvPwYVLX51askDEREROYD0jKpTV4vs/gP7cfPmLWXKenfv3sOhw4eUKSIiIiJSM1UFWRFEhY8+nJurQbAlCBMRERFR4cE+smQjpSsKOYAoBB3Zi70n7iBZmUNUVKTFhSMiwdyrGX8/iAqjvAuyKfdwYMUq/BWpTJOD0yH++nbMHDICX15MUeZR/onCn58H4Pmxi/BPrDIrzyXi9Jq3MGfrTZ6oHUBKyH9Y99GrGNynE9q0aYU2/j3w1Oi38dXB20hS1lGfeFzfvRgTh/dDt05t0LpTZ/QeOhnfnrTxlyL5PL4c0RFdXv0Jt7LNsok4I/1+fLjtFhz2FS81DEeXB2Dg1B2IUGaZkhq0Fm+88DyGDn8hfRgy8m38GqysQFSAbA+yKVG4vDsQY/r2wItfHpdOt+TYUhB5aRe+mPwkOj89DetPRiBFo1GWUb4JO4z1W87i+omN2PCvuVMMUQru7HgH/bq+gIWnSsB/5HTM/fgjvPv6YDR3O4VfdwdJkUyN4nFqyTD0m7ARkQ2fwcRZH+HDaQHoVS0Z4bFpyjq55FILT745F3Mmdkcl5eUs5vRavBkwCzvD9dMOLf4O/ln/If7Xpy/GBP6Buzkk9dTY2zh3zRUN/TujS2f90M2/KSq6KisQFSAbg2wagr59EYPf+ws1B/VGNXZUKAJCsWfBHGyI6og58wNQly9cBUCHuwc24pBrazzxmAaHtxxBiLKEKKuY/z7HmCk7UH7Ceuxc8wFeHtQdHdp1RI+BozB90c/Y8FZrFFPWVZWoI1j9w3nUfnUplk1+Hj07tEenHs/gtQ8+xxutvZWVcssZZZv3Ro9HSsLwtlwXegoHT4YhrQi8T088/y3emf8Pyg37AG92KwdnrfknnRwdhTjXaug0eCRGDleGYU+imY+yAlEBsjF6alFp0Bf4c99qvN5clS+NZDUf9P50B3Z88QY6VHBS5lG+SruJ3b+cgG+XwXi+fwukHliPfXeMP/8MwZE1C7H459MIu3MYq+dOxJgxr2HG0t8RFGtYz5J1TEsKPoI1H01CQMBYvDl/PY6HpSpLqNBJvYafA39EaKe3MfeFR+CpzDbm7OKihLUQHF69AIEb/sPNM5swb/qbmLv9OuS2zcRg/LNhAWa8EYCAcdPxybqjCE0vdqUubTqJe1d2YunM1xEwdhI+3nQGkekNozmsk3QFO5YvwtJtF7K0Dofhr+8WYukvpxGjzEmXEo/4JOms4+ycHjYfZtjuMdw4vQmfTX0FL0+aix9PR0pvB1Pw4L/vMGfiGLw0biaWH7pr1IXmgXQsFiLwlzOIRxSOrluAr3dfR7LuAf6UjtGCJT/gqOGDkNRURF3dhWXvvoaXxkzAnHXHoPZfCdcG4/HzwY34cEhzlHEx/3ogJEZHI9WrBLxdlBlEdqTVf1NHqbg519+HuJcoBQ8pDjs5MdRYynBdU1sH+3CGm5uzfEtTSLoUmDo2xsPNmzflwdQy46GwSgnajk2nyqFbr0ao/PgAdCl+FBt3XUfGuVOHe4d/wM+71mDyK0twplhDtGpcCtd/nIinRi7E8ThL13lYzLEFeH7Aq/ghuAJatW8C9+MLMWzwNOwIycWLBeU7XfBh7DjujFb92qJsjr+eOtw/sg6/7PkBM6b/gOsaF6QlilqVjNMrJuCt9TdQsok/OjbQ4MhnwzBo5j6l36RSl35fgUnTfkZ0teZoVvYONk5/HgErLynhMId1XCujcvxuLA38GWcT5Dvo3T+IFQs34KZPtYdbjUu3xqAe5XEqcAJmb7uKOJNVUL/dX7avxHsLjsGzfjNUidiOd18YjY+/mIGAT47C69FWeER3GJ+9NAKf/JvRt/b+obXYdEZMpyIu7B6Cw+KkUB+PsNvBuH3zPqINv3B3fsTkqZsQUfUxtKj0AFveG4ZRy06rtLuGnsbVHW5WNGslRMdAW1yL+yeP4tj5GwhP5OsB2Q87AxAVaok4u30brvn1Ru+6bkCxJujXvRzObNmGS8bfyEpLwtV/HqDb5ysw99WRGPHyLKxYMRkNLq9G4O93LV/HWNJZrPxgFWIHLsb3n0/EyKGj8d6yRRjutRNL119w3C+8qFjSg6u4k1wOtaoafdSecAvH9u/B7j275WHPH2fwQAllGil23j4Vj/5LvsOiD97H9AE1pZOCFmV7z8Pm7z/FpBHPYsjo9xE4pQ0i923HMcOXIHRJuH5Oi+cXB2LKyOEImLkM857xwZmtOxBkqBhm13FFvT79Uf/ebmw7E2+4A27v+wVHfXpjUHNTXQVKoeNbK/D5AA02T+yJtv0nYMU/9x/+YqLY7vXS+N+nszBm2ChMX/gpRlQ6jW/WJGDUwnkYN3wEJsybj4C6wdi3+zyMc7ReKbR/eQ5mPF0PbpqqeGLqXHz84evo5CM9tPgdOgU8FxiIqaOGY/TbS6TnVBaXd+3FlSLzCyHF+/hUaK9vxMyJr+B/g7uh5eNdMXb1WWTzfpgoXzHI2kHQxct5MpCeqWNjPFSpUkUeTC0zHgql2OP4eetN1O7VFTXlhnAP1O/RFZUv/orNZzJOwRqtE8q0GYRu1fSt5YJztS7o21iHS8cvyx/TWrKOsdQb+7H7SkW0buKMoBPHcVwMlxNRuVZJBJ8NMvutZrKPtNRUuWtApvaxtJvY9vm7eG/2LLw7bRzGfrILD9JX0KJ4057oUMn4EzUnlK1aCW5JEbhx9gh2blqNDSej4ZwYhWjlcgcajTPKtuyFVr6GZt/i8GtYHc5h9xCmNE3mtI62Wk88/Xgc/thxEnK7aNoN7Nl6DlX790cjD/kOD3OtjB5vb8TBbYvwQrljmDe0GwbM3IE7Rh/ti+2Wa9YBDYsrMzyro0ENb5RuJgWuMsq+uFZA3ZrFkRAeYSLI6mlMdGDQaKXHbt0HrQ2PA2/pOdWAS/j99Oft+LTwG7YSBw7ux/59R3Ds6B9YG1AeRz6cgM+PMspSwWOQJSrEIv/dhB3XEnFx5Uvo3q0LOktDn0m/4r4uCL/98l96+NRJ4aOYb2kp5hrRuKO4tytSE5PkbgiWrGMsSTo5RyTcxNZPJmPCpIn6YcI0fHFSCx/XFLbIFkJuZSqjjPYegm4YvS3xbI23Nh3Egb27seJ/deGiy4i5ok54l/XN0pc2Gse/fhH+7Xpi2Jvzse7gJcQ6e8DJKNeJPwrpUdIbbsq04OrpKT12mr6PrSTHdTQV0Kl/c0Ts2ooT0u4mB/2GzZdr48medWC+66UGXjW6Y8JXO7ArsB+S10/FlO+upNdHsV03b09kfA/VCS5urvAsUdxoX5zg5u4MXWp6p14LOcFTek7G33F1cXeX5hbh62m7lEGLUVPwXI3bOPTn1YdbyInyGYMsUaEVgsOb/4Suwxi8M20KJk+cpAxvYvrQpgjZvQl/Kc2iGuk0mpyQmDlcpkXizr1EFC/nA3dp0pJ1jDl7esPDqSKenL8Ne3buzjRsndcf5ZX1qPDQVmwN/3pxOPTLQenNjjIznRZaU6/4WRoeUy+txswlweixeAf2blmHrz+bjTFtfUVCzHM+bQfBHwex9dh9XNixG2GPPY1uVS09LbmgQrdX8UoHZ5z/8wRClblkB85eKOHlLH8iUGQDPdkNgyxRIaUL3oefDiShycDn0L9HT/Tq2St9GDCkP5rGHsCGP+7r19UlI/jQdvwTlnEaif1vHTacLY2WbWvJLVGWrGPMpVprPF7+Bnb/ehzRyjxZchhCInm6KpRc6mHwy33gsWsWJn51HFGZiikNaRYUW/y92wjVlINfZW8l40bg+J5/8ycoej+GQX1K4r/ffsKGHaFoPqA9yiqLstLdPYZDQbGZg1JiGO6EJcMr6ycNeUDj7AynlAQksIlRplO6rYgvw6WkZG7Jjj+7DdsveqF+46qZWquJCkKeBdlUl1ro2b8xSvD8RpQnru/chH9cWuOJVr7KnAyayl3wVGsn/Lt5P26L3zmNK6pUfYDAUWMx95tV+OqT1zA4YC2Sn5iCl1t4KXeyYB1jxVoiYFxXxK15CQMDPsCy79ZhVeAMDO0zBt8HZ+2IQIVF6U7v4OtZbXE78Dl07P4cXn/vY3z66Wy8GTAIwxafhZO7+ahRrG47NPc6gvlTZuGb71di3vhXsSq6mgVXQcgNDzTq3QXuB37ALnTCU4+XVOY/TKMJwjfPtkHHwWPx1sfz8MkHUzBiwFAsutkcL41sDUOX2LziWbUBauoOS78ni/DF519iX1Fu8g3ZhnEdm2PQ0jNIQgi2TByAIVPn4avVKxE46yX0G/YFIrpNw4SO2ZcfUX7JsyDr/shTmDhlOMy8DpGD0WlroOf/+qKOK9+95IerqY9j1OtD0bq0MiOTsmg34jUMaxyDy7f1oVJb8wV8PL09dOcO499bJdFz9gZser97pgBifh1nVGjzLJ5qUkp5YdCiQt/P8OvGuRhQ7h6O7tuLow/KYMCcBRhdL+MLY1TYuKHmU/Px+54fMWdII7iHXcG5S/eQVq0HJi3biv3fjUV9ufg0KNd6CAY2yHKhqzK98NHaxRhZOwL/HDwLTcepmDmyH4aMaIdy8gpOqND2OTzVuETmXgm+rfDCc82VxgxL1tFzqdkZncvEoGTXgWhq4v1UurJ9MGvpexjS1BsRly/iaqQHGj73CTZv/xJD/Qzh3NR2NfBp8TSebm6o14IWJZs+hedalkmfV7btUDzVMGMHtFUGY97i8WiRdhFnI91RwsUZ5ds8gyfTfz/0NGVbS8+pBUz+mqqOFqWbP43Bj/lkLjfvuugy4En0bFYOriiJlkOeQzOnm/j3wJ84G+eHYYu2Y+vHfVCRV+EkO9D41aqtg050VJdH4vNH6b8ONWvWwO7fd+nXKiQClwTi5s1bylTulC9fDuPHjVemLLdy1UqMGDZCmSI1MVwjtqCuTGCoKwVXZx7gl1f6I7DS59g8/fFsPmK1ZB2yl4KvM4VHwol5eHLUUTy9fg1GVmcSslRRrjOUO45UV7r06IorV65CXM8+z1pkC0Kb1m3kIJpbVapURscOHZUpIiKyq5Sb2L58O1J7B2AgQywR5YKqgmyzps3k1tSPPpybq+HVsa/Kj0FFS6G+TmwesuQPrRWSP8ZGRV40Ds5+Aq3a9sfc213w9vhOYK80IsoNVQVZIjKlFDq/sw7LAx596BJaGSxZh6igeOGxgM/x7Q+/Ye+66WhXSplNRGQlBlki1XOGd7kqqFzaPfMXNDKxZB2igqKFR1k/1K1RFp7sUUBENmCQJSIiIiJVYpAlIiIiIlVikCUiIiIiVZKDrHxtauWH0XWqiYiIiIgKJZFZ2SJLRERERKrEIEtEREREqsQgS0RERESqxCBrIQ93/nV6sg7rDFmLdYasxTpDRR2DrIXiE+KVW0SWYZ0ha7HOkLVYZ6ioY5AlIiIiIlVikCUiIiIiVZKCrP7KsZmvJcvryWbFfkhkKUNdYZ0hS7HOkLVYZ8hajlRXREY1pFe2yFrI09MToaGhyhSRaSEhIfDy8pJvs86QJVhnyFqsM2Qt4zrjaBhkLVS3bl2cPHVSmSIy7dTpU6hXr558m3WGLME6Q9ZinSFrGdcZR8Mga6E6tevA19cX+w/sl9/ZEBkTdWLP3j0oU6YMavnVkuexzpA5rDNkLdYZspapOuNoNH61aul0OkD5IfeOFbdr1qyJPb/vUlYjg0uXL+HChQuIjY3lZU+KKNHPyLjsxbT4yEa82zX1QsE6Q6wzZC3WGbKWtXVGzTr36IorV65Co2GQJSIiIiIVYZC1wYWLF3Dx4kXExcXxXS/JxLte8YUL0VdNfMyXFesMZcU6Q9ZinSFr5VRn1IxBNpdEh/qIiAg0qN8APj4+ylwiyN8aFvVD9FVr1LCRMpd1hrLHOkPWYp0ha2VXZ9TOOMhqpdwqB1hB/qm/mTEmmXi3K14oOrTvwBcKeoioE/6d/BEWFib3VRNYZ8gc1hmyFusMWctUnXEIhsAq/edVCywkPrIR73aJzBF1RHzhQmCdIUuwzpC1WGfIWsZ1xtEwyFpI9Dviu13Kifj4RnxrWGCdIUuwzpC1WGfIWsZ1xtEwyFqInefJUoa6wjpDlmKdIWuxzpC1HLWuMMgSERERkSoxyBIRERGRKjHIEhEREZEqMcgSERERkSppMy4Xq79luDQXEREREVFhJeIqW2SJiIiISJUYZImIiIhIlRhkiYiIiEiVGGSJiIiISJUYZImIiIhIlRhkiYiIiEiVMoKs0SW3jC7ERURERERUqOiUmMoWWSIiIiJSJVUF2YRNhxH+5Bzc93spV0NY7/fkx6Cixa9OLXkgIiIix6KqIBv31Q4kn7iqTFkv5cItxK/eq0wRERERkZqpKsiKIGorW4IwERERERUeDt9HVlPcE2XOBipTRERUcKIQdGQv9p64g2RlDhFRXrI9yCaH4tyedfhq2VKs2vof7iYq8wsBrW9xlDm1EBovd5Q5vUiZS3np/s5ZGDH0Day5nKrMobyXjAdHv8PssYPQzb8tWrXvhF5Dx2P+touISVNWIZIl4eTy1zD0hVH4YE+IMs9I6iWsnTgcb6w5jxRlVv5KxOk1b2HO1psMsoVYatgxrH5nGHr5t5FeX7rgqQnLcOhe9jUkNWgt3njheQwd/kL6MGTk2/g1WFmBqADZFmQT/sP85/pi9LIDuPHgFg4sG42eg+fgcJSy3I60FUrB9+hnyhQQ2nG6covyTPxxrA5ch4PHbyBGo1FmUp7SheHPjwej29BP8ZdrW/xv6gf4eNZEPPNIJDZPG4A+43/ClSRlXSIhIgj/HjuCH+YuwIEIZZ6R6OsncTVamSDCPWx+ezLWJ7TH+PnfYPlnr6JZ8HKM/t/H+CtGWSWL1NjbOHfNFQ39O6NLZ/3Qzb8pKroqKxAVICnI6jKuGCtflMuK68fqNKg9ai12/bgYs9/+AF9/vwj94zZixZ77+uV24lTJB75HPlGmpBDbbirSQvnKnbeScfmnBdhZph2a8MUrn+hw55e3MOHbaPRcsBW/fD4ez/XohA7+T2DEW8ux7ceJqHJoFiZ+eQoJyj2IoNWgRPMB6ObyK+YsOQK+8pF5Tqjz4gr89PFL6N7kEdRvMRBTP3wZDW//hs0nTCfZ5OgoxLlWQ6fBIzFyuDIMexLNfJQViPKdIavqbGyR9WiKvr1qwk2ZhFdFVPPVIiEhnz+00mhQ9tpXcGlRW5mRwamyL3wOfaRMAWHd3kHqTRMfsZFNUq5+j9nf6vDc883Atth8kngKP678E+4DZmBa9/LS6SYzj7ovYPrIWri4bhX+lFveQnB49QIEbvgPN89swrzpb2Lu9uuQex8kBuOfDQsw440ABIybjk/WHUVoem+QEBxZsxCLN53EvSs7sXTm6wgYOwkfbzqDyCxdF+Kv78FX749HQMBreOfrvbh4YjMWB36DPTcyupYkBR/Bmo8mSeuMxZvz1+N4GLudFCjp9T0puRqeGdcbietmY/HRWGVBNrKrG0lXsGP5IizbfgmZGv3TbmHvioX44rdLMPQkY5mrmS8aNK0C4/YIp+LlUcYjFckpphu2EqOjkepVAt4uygwiO8rTL3vpgv/GH9d80ah+/r4tK3vlSznMllr/Jlxa1lHmKiH2z7nKlBRi+85GysU7ylThYbiuqa2D3SSex7ezVkH3wjQ8UyNPq1CumDo2xsPNmzflwdQy46GwSbv7Lw5dLY7WPZqjhDIvM1fUatcGlcNO4O+rok1Wh/tH1uGXPT9gxvQfcF3jgrREESiScXrFBLy1/gZKNvFHxwYaHPlsGAbN3Af9J8863Dv8A37+fQUmTfsZ0dWao1nZO9g4/XkErLyU3rcx8vAHeLr/OKy7URpN2jZDyXNLMWHRRmxb/huupOrfzsQcW4DnB7yKH4IroFX7JnA/vhDDBk/DjhArPumhPOCCcl0nYEbvOHz/wVc4Ea/MfoiZuuFaGZVid2LJ4l9wzui7D6nXfsOSwB2IqVRVbsRgmTuemIt/40xydTSo7qXMySwhOgba4lrcP3kUx87fQHgiy5rsJ89SiC7iXyycsgB3e03Fi4+mt9Hmiwd1XlZuAaV+nAKXVnXhVLF0phAbPvBDpJy6rkxR3onBv4FvYjmG4d3n68KFr1/5JinkDkJ1ZVG9kqcy52GuvpVRzjUGIeH6pKGRgsntU/Hov+Q7LPrgfUwfUFP6JdeibO952Pz9p5g04lkMGf0+Aqe0QeS+7Thm6M+uS8L1c1o8vzgQU0YOR8DMZZj3jA/ObN2BIPEBS9JZrJ73I2L6LsL6L9/Gy8NGYsKnKzG7fhiuGpKutM7KD1YhduBifP/5RIwcOhrvLVuE4V47sXT9hQL6chFl8EHnCW+ic6hUTt+eTW89zcxc3XBF3V59Uef2Lmw/Z+i8koyLv2/D1ToD0L++9DrPMnc4uvA/8Nn7W+A24GX0r2YqIqQhPj4V2usbMXPiK/jf4G5o+XhXjF19FnHKGkQFKU+CbOy5bzH26fE40vxjrJ7RAaWU+flFl5yCB/VfUaakMLtuMnwOf6xMSSH26Y+Q/F+QMlX4BF28nCdDwUtD8LZ3MWVrdUydMxR+LqJh3P4dC0wdG+OhSpUq8mBqmfFQ2Oh0OmVQZpigX+4EVxdDxwMtijftiQ6VjDsiOKFs1UpwS4rAjbNHsHPTamw4GQ3nxChEK58ZazTOKNuyF1r5GsqzOPwaVodz2D2ESQko7faf2He5PHo93RollTUATzTo1h5VlU2l3tiP3VcqonUTZwSdOI7jYriciMq1SiL4bJDS+ksFSVOmB96c3AF3vp6N1ZdMfSvQfN1wrtkTA5tE4MDO0/qQknge27cHo/Gg3vCTyp1l7ljiLn2P154ah0NN3sOXb7Yz+l03poXfsJU4cHA/9u87gmNH/8DagPI48uEEfH6UUZYKno1BVofwQ+/j2dFbUf3dDVg9vg188iQa50wXm4gHj76uTGWIeOYTJP99SZmivBR7MhCvvX8ZbV8egNLXjuDQ4UP463K4vCwi6AiOXHjAFpg85FamCspq7+Litey/rpMQHITbunKoUdFDntZJwcS7rK8UMY1F4/jXL8K/XU8Me3M+1h28hFhnDzgZvQcR3eU9Snpn9HeXuHp6wkWXJvexTQq7izCnsqjsk/mbfU7unnBVfueTwu8jIuEmtn4yGRMmTdQPE6bhi5Na+LimsG7YhQble0/Fm23v4JuPfsLVh7qu5lA3tFXRdUAThO7ahlOxUtA5tRm/RbTE050qyn3jWeaOIgnXN0/FoOHfwmXM99j4fh9UsbT/q0sZtBg1Bc/VuI1Df15N74pEVFBsi52R+/HRO3+gxSff4M12ZeGszC4ousg4hDR9Q5mSwtRz85B05IIyRXkt+spFhOgeYPfCGZg8ZTImScOEd77Dmdjz+P7dSfjwl6uZvxRCNtFWbIVOdeNx5JcDuGuyVTYax7btR6hfB7SpbNQCm6WRPPXSasxcEowei3dg75Z1+Pqz2RjT1lekV4tpXdzgnBSOB9GZk1Bi2ANEKmnF2dMbHk4V8eT8bdizc3emYeu8/iivX40KmrYi+k56FQ1Oz8fs74OQ5Jzxsm9J3SjXbgBaxu3HtpPBOLHzb7j1GIy2ytcgWOaOQHzSNhUj5t3Dk1+ux/zBdbK8EbaAsxdKeDkjLTXVmpcVojxhU5BNvHII/yaXQdK+RZgzd07GMH8LLhXQl1bTwmIQ0my8PsQeOq/MpfxQfkAg9h0+hEMH/0wfDq4egwbFHkHAqv34Zcrj1r8AUvZc6uHpl3vBfc/7mLL8NGIynSGScGPLLMxYn4xuLz+HBma6pcffu41QTTn4VfZWMm4Eju/5F6Hybcu4Vm2OR0tfwe+bjyPjO/BhOLRpH4KV/XKp1hqPl7+B3b8ez3zJp+QwhETy9GZPTlUGYsa4Rjj51WqcTnFJf69jUd3waY2nOjnj7x0bsfVAGjr0bQZvZRHL3AHE/otvFv2N+pM/xKiGxZSZD9NJIVV/EZNUpKRkvpxJ/Nlt2H7RC/UbV8109QOigqAEWeNryab/yFF8SiV07VkPHul9+ZQhLa1A35WJa8QyxNqHVquvQk7KmPKWj/+7+HJGC1yb/zQ69f0fpnz4KT79aDpGD/RH7+l/ofbkZZjVrUzWRthMitVth+ZeRzB/yix88/1KzBv/KlZFV0NZc3fKqmRHjB3TCiErXsLgNz7FirVf4f0xL2KFpgnqGT6CLNYSAeO6Im7NSxgY8AGWfbcOqwJnYGifMfg+mJdjsi9nVB80A6/XvoA9JyORprxAW1Y3SqBFv7bQHdmBsxX6YWBDd2W+hGWuerqwizh3LwU3pTfGr7z6CsYaD7N+wU1RV0K2YVzH5hi09Iz0FjoEWyYOwJCp8/DV6pUInPUS+g37AhHdpmFCR9O9aonymv4lTPop/XcqVbr0THk6i9KlSmH4C8OVKdPcKzVBu/Yd0CHr0KZevvSVjV24RbllG69x/ZRblhNfYmjSuIkyRQZpMZGIcfdFrQZNUaNE4QyzCxctlMfjXnu4T3V+MNSVvKkzzvBp1AdDBrZGRdzHtcvXcCfKGZXaPoc335+F0W3LI6MrWzwiwjUoWbkumtQrmzHfqzb8u9aH5sYJHD0bBp8ur+AVf1+4+VZE7QaPorJnIqIidShVrT6a1vFN7yIUHx4OrW811Gv0CMq5alGqUW/0a+GNkHMncOZmMqr3m4TJre5g/eZQNB/6JB4troV3ne54qkt1JF09gWOngxCirYYeYydhyKMlCrzrkZrkXZ1JQ2x0HDzL1sajTarD2ziQOpVGvUerolipGqhdtwGa+5WCNse6ob+ri095lEzSoUqPAfCvZmi9FTQ5lHkSoiLSUKp6IzSt7cM6kIfyqs6khN9FuGd5VCnnC19fn8xDqSp4pFkNlHDWIikqBRVa+ePxyiVQorQzQi6dxemzVxDq4oe+b3yE90e1QGm2ZxRqeXNOKhy+Xb0K4dI5SiP+1fTz0+lbUqUlhhZV6Z9fzZrYs2O3/h6FRPiTc5B84qoylTvOdSuj9LZ3lSnLrVy1EiOGjVCmSE0M14gtqCsTGOqK49cZHYI3vIS+iyti0ZZZaGP6kpNkgaJTZyivsM6QtRyprvh374IrV67IQVZV7588XvCXg2huuTSuAc+XuitTRGS5UPy1+TecD08Wn+RI0hB9/ge8v+hvlOvdH00YYomIyA5UFWTdB7aWW1PLBn2Vq6HUxunyY1DRUlivE6suOoT/+TEGd3ocj8tdiFqi7TPzcbPDB1j6enN+yY+IiOyCPVqIyAK+6PnRbvx7YDt++mYpli7fgD2HD2PzrCdQjV9TJiIiO2GQJSILaeBaojyq12mABrWrwtfT+K+HERERFTwGWSIiIiJSJa3yzQ2JuFaBQrqRfpuIiIiIqDBRgipbZImIiIhIlRhkiYiIiEiVGGSJiIiISJUYZImIiIhIlRhkiYiIiEiVGGQt5OHuodwisgzrDFmLdYasxTpDRR2DrIXiE+KVW0SWYZ0ha7HOkLVYZ6io08qX4RI/lOtx8fqxRERERFTYiczKFlkiIiIiUiUGWQuxHxJZylBXWGfIUqwzZC3WGbKWo9YVBlkLeXp6IjQ0VJkiMi0kJAReXl7ybdYZsgTrDFmLdYasZVxnHA2DrIXq1q2Lk6dOKlNEpp06fQr16tWTb7POkCVYZ8harDNkLeM642gYZC1Up3Yd+Pr6Yv+B/fI7GyJjok7s2bsHZcqUQS2/WvI81hkyh3WGrMU6Q9YyVWccjaZGTT8ddOK/NEgzxFhM1/Srib07duvXonSXLl/ChQsXEBsby8ueFFGin5Fx2Ytp8ZGNeLdr6oWCdYZYZ8harDNkLWvrjJr5d++CK0FXpBSrYZAlIiIiIvV4KMgawqv8T4ylST8GWZMuXLyAixcvIi4uju96SSbe9YovXIi+auJjvqxYZygr1hmyFusMWSunOqNmIsgGSUFWwyBrHdGhPiIiAg3qN4CPj48ylwjyt4ZF/RB91Ro1bKTMZZ2h7LHOkLVYZ8ha2dUZtTMOsvyyl4XEu13xQtGhfQe+UNBDRJ3w7+SPsLAwua+awDpD5rDOkLVYZ8hapuqMo2GQtZD4yEa82yUyR9QR8YULgXWGLME6Q9ZinSFrGdcZR8MgayHR74jvdikn4uMb8a1hgXWGLME6Q9ZinSFrGdcZR8MgayF2nidLGeoK6wxZinWGrMU6Q9Zy1LrCIEtEREREqsQgS0RERESqJAVZnXLTmLgcl3KTiIiIiKhQEUFVxxZZIiIiIlInBlkiIiIiUiUGWSIiIiJSJQZZIiIiIlIlBlkiIiIiUiUGWSIiIiJSJQZZIiIiIlKl9CArXzaW144lIiIiosLMkFelMVtkiYiIiEiVGGSJiIiISJVUFWT/O/YfApcE4s1pU3M1zF8wX34MKlr86tSSByIiInIsqgqy+w/sx82bt5Qp6929ew+HDh9SpoiIiIhIzVQVZEUQFT76cG6uBsGWIExEREREhQf7yJKNdLzYBRHlmZQ7x7B77wGcDUmTp9PiwhGRYMmrTBSCjuzF3hN3kKzMISLHZ3OQTY0KwqEta/DVF19h3cGriGGqKSJ0iL++HTOHjMCXF1OUeZS3knBy+WsYOuwFDB3+Ap4f+SJem/EpfjoRCh5xykli8CF8+95oDOzREa3btkGH7v0wbGog9t8p3C/SmthDWDAxEIdjpInk8/hyREd0efUn3MpxtxNxZs1b+HDbLf5+WCUFD46uxcyXBqCbf1u09u+Llz77HdfilcUmpAatxRsvPC+/LhmGISPfxq/BygpEBUhr3Jwm3xQ/LH2dS7uMr18ejU9/O4vbd07hp7f6o+cbv+CO/o00OaQURF7ahS8mP4nOT0/D+pMRSNFolGWU5yKDcDaqPFq0aYPWTWrC/cYWvPdsf4zfcgf8NSPTknBjyxT06fEivrxUBt1Hv4WP5s7G5BFdUPbuZQSrKeW51MKTb87FnIndUYkvM/kkARf3/w1Np3H4aOnXWDytN7S/TsLQGdtwP5sskBp7G+euuaKhf2d06awfuvk3RUVXZQWigqDUT9taZLWV8PwXO7Bh8RzMfG8hflgxFuUOrMDPV1KVFcjxhGLPgjnYENURc+YHoC5fuPKZBjrP+uj/0st4ddx0fPLtT5jbLRWHfvkDdy19w0lFStRf8zBmxgFUnbQRO9d8gJef6o4O7bvgiSHjMG/l53i2auFOhDqdccV2RtnmvdHjkZLSbwLlj2JoO2EB3n3eH83qPYJm3cdi1uutEffnNvwTpqySRXJ0FOJcq6HT4JEYOVwZhj2JZj7KCkQFyMauBR4oVsxJuQ04uXvDw80dnq7seuu4fND70x3Y8cUb6FAho+ypgGhc4VXMDc4uztAazuyJwfhnwwLMeCMAASLsrjuK0PT3kiE4smYhFm86iXtXdmLpzNcRMHYSPt50BpHGTbr5/hhUIFKv4OelGxHp/zbmvlAPnspsk7Irr6Qr2LF8EZZtv4Qk/Zp6abewd8VCfPHbJSQqs5KCj2DNR5MQEDAWb85fj+NhhgK3sM5I4q/vxdfvj0fAmNfwzpe7cSXOeIUHOLx6IQJ/OYP0T7oT7+GfHz/FtDdexphxM7Dg1/OIUhbJUlMRdXUXlr37Gl4aMwFz1h1D+m6RRZxcXODkVhzF3ZQZWSRGRyPVqwS8XZQZRHZke+JMiUd0VDjuXzuCVZ98j4iu/0OfQv6O394M1zW1dbAPZ7i5Ocu3NIWkS4GpY2M83Lx5Ux5MLTMeCi/DF+qSEfLPKnx1wB3dn+2E8sq80ysm4K31N1CyiT86NtDgyGfDMGjmPkTIy3W4d/gH/Pz7Ckya9jOiqzVHs7J3sHH68whYeUn5UkxBPAYVBN3dv7DrpCtaPtEWZc3+epopL9fKqBS7E0sW/4JzhsQqSb32G5YE7kBMpaoQ+Sbm2AI8P+BV/BBcAa3aN4H78YUYNngadoSI2mpJnRGtx3MxuP/rWHfLF83aNkepi0vw+qJjylK9+4fWYtOZWP1E4nmsePlJjNsQisqPt0fL2hqcO3QG0fqlend+xOSpmxBR9TG0qPQAW94bhlHLTqeHbzJHJ71P+AMrvj2Bak8/g8eKKbOzSIiOgba4FvdPHsWx8zcQnsiPh8h+bA6yiacDMaRLZ3Tp8xo2uvXCqyPaooyyjIhspEtD3KlFGNzmcTRr2hgd3r6GJz7/GlPbl1ZW0KJs73nY/P2nmDTiWQwZ/T4Cp7RB5L7tOGZoptIl4fo5LZ5fHIgpI4cjYOYyzHvGB2e27kCQ3F+ygB6D8l3S/au4k1wOtap5K3OyY668XFG3V1/Uub0L288lKOsn4+Lv23C1zgD0ry/F2KSzWPnBKsQOXIzvP5+IkUNH471lizDcayeWrr+g/7JVTnVGeoxVH/+AmL6L8NOytxDwwgiMn7caHzUKR1A2lx1IvbEbP/9XBs/PnoVXhgzByFdnY9mcp1BJWa5LS8LVU8BzgYGYOmo4Rr+9RNpmWVzetRdX1NQ3uKDFHsHcpzugdavmaPu/dSgWsALfvNwYHsrizNIQH58K7fWNmDnxFfxvcDe0fLwrxq4+izhlDaKCZHOQdWsyCZv/Porjx3bgkzY38dlzwxB4lu99zQm6eDlPBtIzdWyMhypVqsiDqWXGQ6Gk0cKr4TB8tGQplkmB4OPniuPXyf3Q6/UfcU3+uNQJZatWgltSBG6cPYKdm1Zjw8loOCdGIVr5XFijcUbZlr3QytfQRFccfg2rwznsHsLkX9WCeQzKf2mpKUiFJqPbSbbMl5dzzZ4Y2CQCB3ae1oeTxPPYvj0YjQf1hp+TCJT7sftKRbRu4oygE8dxXAyXE1G5VkkEnw2SW+FzqjOpt/7A3qBy6Pl0a5RU1gA88UiXtqiSTa8lp9K1UavERaz7/Fv8FZygfFKRQaN1RrnWfdC6jGGb3tI2a8Al/L5ST8kk1zp4dvZiLFnwGWYOKoUDs4dg8Iyt2XxxWwu/YStx4OB+7N93BMeO/oG1AeVx5MMJ+PwooywVvDzozKqRXrC0cHIthTr9x+GlR29hx/6r0ospEeUFnaYkajZpjsfbdEbf4e9i+eJhKLF/GVb9J3oNRuP41y/Cv11PDHtzPtYdvIRYZw84GQUZnfRr7lHSW/442MDV0xMuujTlygcF8xiU/1xLV4Cv5i4uXxfXrjInh/LSVkXXAU0QumsbTsUCcac247eIlni6U0X5S1dJUjCMSLiJrZ9MxoRJE/XDhGn44qQWPq4pcotsTnUmSQq04dpyqOJrvIYUVt09ke3XLHy64/0VH6Jz5Ld4sVsr+P/vE+y6ZfxOyQme0jaNv4Pq4u4uzeX1rs1yKY3q9RqhactO6DtyFlateAW+O+Zi4R8WfJziUgYtRk3BczVu49CfV9O7jRAVFNuCbGpq5sCaEoPQqDR4ebnnRUImIhPcfKqgrFs07t2PQ+ql1Zi5JBg9Fu/A3i3r8PVnszGmra9IERYrLI9BtnOq1Brta8Xg0OY/sr10kmBJeZVrNwAt4/Zj28lgnNj5N9x6DEZb5Vvpzp7e8HCqiCfnb8OenbszDVvn9Vf6b5vn5OYB1+Qw3I/KHH0SQx8g0kw3AI+a/TFz7T4c2foZ+qduwOuj5sCSvEWWc6nQEPV9Y3DzZqRlv8LOXijh5Yw0KRPwV54KmpI3RdXTVz9rKmHS2aUYPepdfPPLDvy+ZRU+CHgRX8T0QkDf6rxUClG+iMPZLRtxNLkGmtYrifh7txGqKQe/yt7K71wEju/5F6HybcsUlsegPODWAM+N6Qan32di/JfHEZXlBV2XEIKQGAvLy6c1nurkjL93bMTWA2no0LcZDD1vXaq1xuPlb2D3r8czf9FKCqYhkZadRVyrNsejpa/gt80noHyVSxKGQ5v2Iji7h0hKhP57RVp4VeuMMa/1QYX7FxEUYc2ZizKJvos70ZmPX9zFP3H0gS/q1/NNP5frpJCq//QlFSkpmfscxJ/dhu0XvVC/cdVMreFE+U3UXJsaTl39+mN4R1ec+f0HrP35XyS1eRsb1r+HTobvoRCRjXRIvbMF7744AsOHD0bvTm0xcP41PDZxFob6OaFY3XZo7nUE86fMwjffr8S88a9iVXS1HL6xnllheQzKCxqU6T4bX05rhusLn0XHHkPxxuxPMH/+HLz12rPo3H0SfgvXWVheJdCiX1vojuzA2Qr9MLChuzJfUqwlAsZ1RdyalzAw4AMs+24dVgXOwNA+Y/B9sIUdy0q0x8tjWiF0xUt4ZvynWL76C8weMxornZqiXjaXdUq+tBTDnxqL95d+ix/WBuK9T3YguXU/dKjIipZr8Ucw5+kBGPvhMqz9YRUWz34J/UasQEL/6QhopnzdK2QbxnVsjkFLzyAJIdgycQCGTJ2Hr1avROAsaf1hXyCi2zRM6JjR25mooDiVKlVqpnI7k9KlS2PEsOHKVDZcSqBa4w7o0ac/BvbvBf9mNVHKNf9eUHbt3iWPu3XtKo+tZcv9xZcZmjRuokyRkBYVjmivsvCr3wR+JQtvZ5KFixbK43GvvS6P85uhrtheZ9IQG5OAYuUqo2KFCqhYuSYe7fgMxr/zDl5sWx7yud6rNvy71ofmxgkcPRsGny6v4BV/X7j5VkTtBo+ismcioiJ1KFWtPprW8YX+wmnSuSs8HFrfaqjX6BGUK1UQj6HciUzKuzojuKBM4ycw5MlWqOwUiptXruHGg3i4V3kcg155GU/ULQ6XHOuN8kg+5VEySYcqPQbAv5qh9VbQwLtOdzzVpTqSrp7AsdNBCNFWQ4+xkzDk0RJSHbGgzrhqUapRLzzxmDcenD+Bs7fSUP2JCZjSzRcpxcpJ+9EY1YvHIzxCWq9KXTStWxauHmXgk3YTp0+dwcW7OtR4YhI+eL0rKsm/DEmIjEhFyeqN0LS2T/o2EyLDofGtgQaP1kMZB2ouzLM641EZDWo64fbZUzh+6jLCPOrjyUlz8e6QRihuKHAnLZKiUlChlT8er1wCJUo7I+TSWZw+ewWhLn7o+8ZHeH9UC5Rmn8JCLW9eXwqHb1evQrj0egKNBpoaNWrqRDd48ddUxB9Ukf+qijT4+flh787dyl0Kh8Algbh585YylTvly5fD+HHjlSnLrVy1Ugr2I5QpUhPDNWIL6soEhrrCOkOWYp0ha7HOkLUcqa74d+uCoKAgOciq6v1Tm9Zt5CCaW1WqVEbHDh2VKSIiIiJSM1W1yNoT3/WSpdhSQtZinSFrsc6QtRyprqi2RZaIiIiIyIBBloiIiIhUSSuuwZVx8dj0G0REREREhVBGXmWLLBERERGpEoMsEREREakSgywRERERqRKDLBERERGpEoMsEREREakSgywRERERqZKZIMtLcRnzcPdQbhFZhnWGrMU6Q9ZinaGiTccWWUvFJ8Qrt4gswzpD1mKdIWuxzlBRxyBLRERERKrEIEtEREREqsQgayH2QyJLGeoK6wxZinWGrMU6Q9Zy1LrCIGshT09PhIaGKlNEpoWEhMDLy0u+zTpDlmCdIWuxzpC1jOuMo2GQtVDdunVx8tRJZYrItFOnT6FevXrybdYZsgTrDFmLdYasZVxnHA2DrIXq1K4DX19f7D+wX35nQ2RM1Ik9e/egTJkyqOVXS57HOkPmsM6QtVhnyFqm6oyj0VSvUVMnAaRBjOV/0qSfX03s27lHWY0MLl2+hAsXLiA2NpaXPSmiRD8j47IX0+IjG/Fu19QLBesMsc6QtVhnyFrW1hk169StM4KCgqDRaBhkiYiIiEg9jIMsuxYQERERkSoxyBIRERGRKjHIEhEREZEqMcgSERERkSoxyBIRERGRKjHIEhEREZEqpQdZnTLWyzxFRERERFSoSHGVLbJEREREpEoMskRERESkSgyyRERERKRKDLJEREREpEoMskRERESkSgyyRERERKRKDLJEREREpErpQVajjPWXkE2fIiIiIiIqfKS4yhZZIiIiIlIlBlkiIiIiUiUGWSIiIiJSJQZZIiIiIlIlBlkiIiIiUiUGWSIiIiJSJQZZIiIiIlIlKcjKF45VfhpkniIiIiIiKmzYIktEREREqsQgS0RERESqxCBLRERERKrEIEtEREREqsQgS0RERESqxCBLRERERKrEIEtEREREqqTlJWOJiIiISFVEfpUGtsgSERERkSoxyBIRERGRKjHIEhEREZEqMcgSERERkSoxyBIRERGRKjHIEhEREZEqMcgSERERkSopQVZ/Mdn0S8ry2rJEREREVMixRZaIiIiIVIlBloiIiIhUiUGWiIiIiFSJQZaIiIiIVIlBloiIiIhUiUGWiIiIiFSJQZaIiIiIVMkoyPLisURERESkHmyRJSIiIiJVYpAlIiIiIlVikCUiIiIiVWKQJSIiIiJVYpAlIiIiIlVikCUiIiIiVWKQJSIiIiJVYpAlIiIiIlVikCUiIiIiVWKQJSIiIiJVYpAlIiIiIlVikCUiIiIiVWKQJSIiIiJVYpAlIiIiIlVikCUiIiIiVWKQJSIiIiJ10ehHDLJEREREpEoMskRERESkSgyyRERERKRKDLJEREREpEoMskRERESkSgyyRERERKRKWYKsThkTERERERVSSmRliywRERERqRKDLBERERGpEoMsEREREakSgywRERERqVK+BFmdTpc+pKWlcSiAwfiYExERERUFmurVa4j4kxGCxH9p7FfLD/t27lFWy5nh/qYGw3LKexqNJn2c3UBERETkKDp164ygy0H6nGNLkDWEU+NWweTkZCQmJcpDUkqKPJ2my1hOeUur1cJJ6wQXFxe4OjvDzdVNHsS0KGCxXAwCQy0RERGpnXGQzdK1QAk6FuQdEUpFOE1Rwmp0TDQehIYg+ME93At9gIjoKMTFxyE5JRmpqakMsflElIE4xuJYi2Mujr0oA1EWokxE2Ygy4hsJIiIicjRW95HNGmBjYmPk0PQgPBRRsVJwkkIV2ZcoA1EWokxE2YgyYqAlIiIiR2NVkBUBSLSuilCUlJSE8MhwPAgLRUx8rByQqHARZSLKRpSRKCtRZqLs2EJOREREjsDiIGsIsaJVLz4hHqER4fJH2alpqcoaVFiJMhJlJcpMlJ0oQ4ZZIiIiUjuLgmzWEBsRFYnY+FhlKamFKDNRdgyzRERE5AhyDLJZQ2xkdBTiExOUpaQ2ouzkMmSYJSIiIpXLMciKfpYi7Ii+lZHR0QyxDkAfZvVXNBBly/7NREREpEZmg6yhNVYfYiOlABSvLCG1E2UpypRf/iIiIiK1MhtkRcARQ0JiAmLjGWIdjShTUbaGcmaYJSIiIlVQ/uaB2SArPnIW/ShjYmPlv85FjkWUqShbUcbsXkBERERqk2OLrPiLUYkpScoccjSibEUZG1pliYiIiNQixyAbn5DA1joHJspWlLEoa3Gb3QuIiIhILcwGWfFFoCT+yVmHJ8pYlLUIsnzTQkRERGphNsiKa43yL3c5PlHGclmn8gtfREREpB7mW2QLpDU2DfF3T+OP3zZh3ffrsWX3f7gZnc/hOekMvhg1DJ//k09/nSx0F9595nX8eEM9rZuirA1dCxhmiYiISA3MB9l8//JPHM6unoAXXnwPq/acwKVLx7Dr28/w9eFwZXle0CH2+p9Yv+U4YpQ5gk78VSvDtRvymkZn4Uf0pvfNHkRZM8gSERGRmuT4Za/8pAveieXrI+A/51t8+fFMzHjnAyxYtQLTOpRU1sgLqbi1bw22nI+XYmMBsTgI2mHfsiHK2vCFLyIiIiI1cCpZstRM5XYmpUuXRp8+fZSp/JEWehSbt95GzSf6oUlpQ6Z2grOzclsXjxsHv8dX3/yAbYcvIa50HfiVddenb3PL0oXin3VrceDcNdyKTETU1dO4rKuGhuVj8e+Wg0hq2hqef6/CsjWb8eeVNFR+xA+lXJS7WvT4irRoXN69Bl8vX4/fj96C1scFVw4GoVyPXmhQQoOE4H+xZe23+G7D7zh8PgLF/eqgvGe46X2r5JnN+ia3nHc0gKe7B1xcXODk5AStNp+3R0RERJQLK1d/i/DwcCm6aMy3yOY3pyqd0a9ZBDbMfA8/HA9F5h65sTj1zQRM/OYKynXohc41wrBxxkR8dTIuh2XGtHD18IS7qxTMnNzh7ukBVydDdwIdrv28GJuj66Bz14ZI+2Mh3l74ByLlZZY+vhCD/76YgMkrglC6TTd0fiQBv3+zHXfSey08wL6vV+G066Po0b8raoX/gncmf4XTCdntW3br6x8tv4juBIauBURERERqYLZFtm/fvspUPtF6o1a7dqgcsherln6FDX+HoXSDxqhZwhlpN7fgoyV30GPObAxpVhM1GrVE7dgdWHe6PPyrHsP8bJZ1aVsFbsrDAx4oX7cBvK79joO6npj4ch80ruAJpD7Av1u2IvjxqXh/RCv41WiEJr5X8cv2ENTv1Qrl7ma/7cyPD6Td+hXzAoPQbtZcvNi6NqrXeQxtq97C9u334ddHtMh6oGrrnuj8WF1UrVwd9eu54OSGQ9C2H4iujzd8eN/gns36PdGwRD716VW4u7rBzc0Nzs7ObJElIiKiQqnQtMjKXCqg/cvzsWb1XAz2OYoFr0zAirPxiLl6Dre1sfgncBomT5okDW/hm38iEBV8F3fNLIu2uEHRGzUfqZweSj3LlEWxlAQkpsLstrM+vlj3VrFGaFHdXZkjBcKKfqjgoUzACWn3/sKPi97DpJdH4oXXluNcUjKSkrPbUWvXz3tslSUiIiI1MB9kCzDPuPg8ikHvLMC09lHYunY/HogvHXnWQddnn8Mzzz4rD8+9OAlvjWyBYqnZLyuuPJ4ltJqMFk6R6g3kLzxZ+PipySnQObvCxfhIpqYgRfnOVOqNjXh7/DKcK9MVo6Z9hCULX8FjouE1G9aun2ekstYYHQ8iIiKiws5skM3vj5fTosMQkaljrAdKlnaDLiUVnlWqo3TELURKAfexxx5ThmZo2qAyylfNflkxU1lM9P8U4ddC3ma2nfXxi1WshBJhZ3HydooyB4g4fwzXlD6t4ef+w/VyvTD86bZ4pGpZeETdxG3jrrZZ9i3H9fOJcVkz0BIREZEamO0j279vP6TlY7NsytW1mPDGcpwMiUT4ncv4d/u3WLE9FI8OG41eTWuj2JUN+OrH44hzd0Hi3bPYs3YlDrm2QMtGNeGVzbLHKxv3YBW0SAs+hF92XoVLyUTcCi+JWuXEVQsOIPnx/mhTSX+ZgrSQ//Drvjg069cOVctVsvjxnUqVh/PZDVj160WkSik35L+f8M3OMLgmJqNa915o5HIROzftww2nEtAGH8T3G88iPj4BlTr3QePSzg/tW50SN82sn39vLJw0Wnh6eMDV1VXuI8swS0RERIWRcR9Zp5KlRJAVoSVzYBVBdmC//kjVWd6SaS0n70qoWjwBwVfO4/y1UKSUbIh+r07EkGYlodV4okbrTmjodhNHD/+LM9djULL5QAxqVxWeTuaWKQ9uxKt6Q1RNPo8j/96Ba90WaFwuBeHRWpSs2QB1yrjK66REhiLSqRRqNqiLsm5WPL7WG7XbtEHVxPP4++8zuO/xGIY8+xg84Y4KdRuhZu0maFUzCReO/IWzEeXR/ek28HFyR5ka0rLSTg/tW/Omrcyun19cnJzh6ekpB1lx+S0GWSIiIiqMjIOspnqNGvJ3e3RSYJW/4yP9EP/8/PywavlKxMTHQaNlqHFkujQdinl4orh3cTnM8qoFREREVFh16tYZQUFBcpA1m1ZcXVylFRhiHZ0oY1HWhpZYtsYSERGRGpgNsiLYOEsDL8fkuETZijIWZc0gS0RERGpiNsiKP1fq5uoGpDLIOiypbEUZi7IW3QnYpYCIiIjUIscWWRFwRItdakqqMpcchShTUbaijEVZixDL1lgiIiJSixxbZNNbZdN07GLgQOSylMrU0BprCLMMskRERKQWZoOsaKETl2MSf3/fXRpSkjMu+k/qJspSlKkoW1HGbI0lIiIitTEKsuIiBvIonaFrgQg67m7ucNE6ISkhUVlKaiXKUJSlKFNRtobWWPaPJSIiIjXJsUVWBBy5RdbdHV6eXvJfgGKYVS9RdqIMRVmKMhVlyxBLREREamQ2vYiPmkXAERfIF4FHDMWKFZPupEF8XDzS0vLvr35R3hJlJcpMlJ0oQ0N5Gv74AbsVEBERkdrk2AxnCLJy9wJ3d3i4e8Db2xuuTs5IjEtAclKysiYVVqKMRFmJMhNlJ8pQlKUoU/4VLyIiIlIrKcGYaolT+suKW1laZUUA8lT+nKmHdDtVCknxsXFISeEXwQobUSaibEQZibKS/wStVHaGLgVsjSUiIiLVkuKLFGT1l9SSo0w2ecYQZuVLcUkByMPDQ/6b/CIYFS9eHC5OzkhOSERcdCwS2X/W7kQZiLIQZSLKRpSRHGKlMhNlJ8pQlCVDLBEREamNSC6GJtfMLbLKZWLFnJTUVDwIeaCfIckaZkUo8vLyQjGvYihZoiS8i3nDzdUVupRUxERGITYqBnGxcUhKTEJycjL70+YDcS1Y0eoqjrE41uKYi2MvykCUhSgTUTaijERZiTJjiCUiIiK1Etk0xeiPdGmq16gp5SGRYPV/8EB/U4fy5ctj/qefoW3rNvKKBvp1dHIwFSFKDCKopg8pyUhK0ofXVCkMGwbKP+KqA4ZBhFT5klrO+j9yYBhENwLjrgQMsURERKQ2fx4+hDcmjse9u/dEK6s+yIrgKv8TKVb8l8alSpfC+NfHYcSwEcpdMzOEWTE2BFoxbQiwhmlDiE1NY5jND05aJ/1YuYSWCKuGQGuYFoOhRZ0BloiIiNRq5aqVmL9gAcLDw/UNc3KQzdIaK/6JFr2aNWpixdffoHLlyvp7m6C/nz7UitAqxlkHsZzyjyGkZh0M4VYuaAZYIiIiUrFbt29h5KhRuHL1itwDQPST1dSoKboWZARSQ6gVLbMlSpRAnz59MPf9OfpHMMMQVg2PYxhEkKX8ZxxYjYMrAywRERE5gqkzpmPr1q2IjIyUAo4+42QKsvoQq9yWBvGvYoWK8O/kj1fHjkXlStm3zBrTP1ZmpuaR7UwFVYZXIiIichS3bt1C4NIl2LNvD+7evSviqj7rGAdZQ3B96LakRIniKF+uPIYOGYLatWqjTp06KONbRr+QiIiIiCgPiasTXLx4EZcuX8Ka777D3Xt3ERUZpV8oMqy+SVYEWT85sRqCq3HLrPF8Fxdn+XJOrm6ucHdzh5OTVloir5qDHFfIVu7vKbHpzray38bV+7Ttuud2UzSradEsa/sqgp/S2PEpF8GjrbDhmRfZ8rLP1u37wW0OG5cWizXEJbYSExOQmJSEmJgYJCenyPudHmCV2/ogK51YMgdXeZY8Fv/0/43m63+kj82R18ktm+5qw50FG+9uC3sdM1uftB0Pmd02bnM9U6si+rQpF8QZiawin6jtwcbN2nZ3O1YUGzZtt7KS2LUbYX4eM2mxvI5RWDXM03cnMMxTlteUgqw4GYuMmhFkxSOJsXRD/p/59kNjM+T72YONm83peZllp6csFMn9tpUdN20Lux4zokJOPtEVRTY8bduPmF03nmt2rSs2HTL7He/83Lb82PJ/47H003iemDbMr+knBVlxPpR+yCdG8f+h21mWi3/6mfJ/c5R7545Nd7XhzoJKt20Lm/fbFnbctC0bV+lukx3Y8/dLfsEn69jxkNm2aRvureJqYrc6buNmbdpvm+5q847nWo7blhdLa0ljed30sfE8/W15qqZfLen1VbzEyiPp1fbh2/r/GeOsrbPmyOvYg42btWm/7fSUhSK537ay46Zt2bhdd7uoUutBl1/wixb7PmU7bt2um1bn8y6S+23jU87XYyZCqjySfsr/xQ9li8q08TKjICu9RuvTqz7EymPphvxfGSvr6dc3LMuB/sFyRdmafdiwaZv3205PW637bSu71jNbqHS3bVdkn7idyKePokelT1s53duHXTdtp43buFmb9tumu9q84zYwf2d5qfRD3kcRYNNvZ54nT4nbcpAVp3L53KCMlcCaKdgq8/Rj6Zb8Xz82R7lX7th0VxvubCsbN223fbfrIVNvednCrs+bCpY9i1p+0SdryCdMNbLjbtv1mNlp0zY/Zxvubt/jnftt53hPaQX5uYn/8naUZ5o1wBrm+dWqpeRV/SlVP2EYS/PSl0k35P8mxubksNicHB/bHBvuaiub9ttGhvKzCztu2hb2LC+1HjN7smt5FUHK6YKsYcdDZtfyUmlV0Ycl+7CpvGzabduec35uWj4m8n/jsXKkxNhonjzLr1ZtKfvoTwyWhFf9qsq0cj9z5Pvmlk13teHOgo13t4XN+55bNh8yOx40WxTFsraVSneb7EB/rlEd5bSpPnbcbbseMztt2r7POffbtnmvbXiAHI+ZtFgfVPUTGcHVMFYeQYzFpAiy+tAqUcaGQKv/Ly9OX5Y+NpqfXwxbyhUbd8umbdvKTptW83O2677bQqW7XVSptZ4pL/tUUFR6uG2uJ3Z83nar42p9zjYXdT4+cemh9V0HlG1kDa7yCoax9LOWaJGVlmdqjc06ln7oJ7MZm5XzGtmy6a423Fmw8e62sGnf1brf9sRjRgXBnkUtnwWooCinXftQaVmr9ZgV2f226e7m7ywvNQ6vWcf6G/JYzE0PsvIpVdxID6dZps2MzTG/NAc5PHZ+Up6dfdiwadv22sbnbMdDZgu7lrU9FcGnXWTL2o6U00/Bs9Nm7c1ux1uw6zHP/cZt2m0bn7Nafz/ydb9NhVczY02t2nWk1/aMUCrfkv/Ls/WU5Vm7HCj/c5DzGtlJ336u2HRnm+9uC/3RtgO7HjL1lpe92K2eEBUByqlSfey423Y9ZnbatM3PuUjut/k7y0ulH/I+mgivhlH68kxBVpwa5RtZx9It+UbGfP1//dicHBbnwIZ727Zh6e42PoAt7LRpNT9n2+5ux+dtC5XuNpEq6M+XqqOc7nNHpc9ZsOl528Lmzeb+AWzatI37na/HW3pofUjVTxiHVnmOYb4yoaktBVn5fCj9tGgs/ZRuymP9f/3cbOWw2Bwb7iqx7d7222/BrhvPtRzrQmFVZHdbpU/cFkXwKdtMf+5QIdt2vIg+bZso0UJ9bNptG+uZnQ6ZXcsqh03rQ6tyyzCWR6bHmtp1pCArXtzNBVX9f+mH6XXMMdyjwNm4Wbvtt2DDpm3aa32hqpJdy8teiuBTtreieMjlE0ZRpNInrpzi1cfm3c79A9i0ae631XK8p7yCVJMNY3lkGOt/iGXyHDE/PcgKhqCaTWDNdpk5OSw2x4a7yvupVoYjnCt2fNo27bc9qXa31VvHiRyZcsq1Dztu2paNq3S3pbuqtaxt2+/83bQ+qMpjeWQY6388tKx2nbrS2dAQSiWGoGoisD60jvhpmJeNHBabl77Bgmd4hnZhw6Zt22t1PmdbqfaY2UrFu06UI/ksp1a533mbnraKj5kSawqezZtVa1nn437LK2QEVvmnYZ4yYTzW1JGCrHw+MwqnhvyY3lRrtEz5L99W7ihPZSuHxebYcFeJbfe2334Ltj9Crthps4Jd3zjYwq7HzJ5UWl6kMvqTmD3Yb8s2smnHbXvWdj1mdtq43QK0oE93dmHTlnO8c0aIVUaGW9IN/djwZ4U1Gg3+D4wEEsNJtkJqAAAAAElFTkSuQmCC;" vertex="1" parent="1">
          <mxGeometry x="1275" y="220" width="690" height="383" as="geometry" />
        </mxCell>
      </root>
    </mxGraphModel>
  </diagram>
</mxfile>
